<svg xmlns="http://www.w3.org/2000/svg" width="800" height="800" viewBox="0 0 600 600"><defs><clipPath id="a"><path d="M30 144.406h540.848V540H30Zm0 0"/></clipPath><clipPath id="b"><path d="M487.879 144.406c-.27 0-.473 0-.676.067-7.383.812-13.41 4.472-17.137 11.449-1.015 2.031-2.98 3.793-4.878 5.012-2.778 2.03-5.961 3.453-8.938 5.214-1.426.813-2.777 1.286-4.133 1.286s-2.64-.407-4.066-1.352c-4.672-3.184-9.48-6.367-14.492-9.144-4.2-2.305-8.536-3.66-12.938-3.66-2.914 0-5.824.609-8.805 1.898-3.32 1.422-4.199 4.062-3.457 7.52 1.829 8.327 5.961 15.374 11.72 21.468 2.843 2.98 6.23 4.879 10.296 4.879.676 0 1.422-.07 2.168-.203 1.625-.274 3.184-.477 4.672-.746 1.488-.27 3.047-.543 4.539-.88-7.25 5.145-14.7 7.247-22.285 7.247-6.637 0-13.41-1.625-20.051-4.133-5.078-1.894-10.293-2.98-15.375-2.98-1.082 0-2.168.07-3.316.136-14.903 1.356-29.602 3.793-44.434 5.758a5318 5318 0 0 0-33.055 4.403c-11.582 1.488-23.031 3.656-34.68 4.468-11.581.813-22.624.746-33.867 3.117-3.523.747-6.84.95-10.16.95-3.117 0-6.3-.203-9.55-.34h-1.153c-6.703 0-13.75 1.828-20.25 3.117-11.516 2.371-23.168 5.352-34.883 5.352-2.777 0-5.488-.137-8.265-.543-6.5-.883-13.817-3.453-20.727-3.453-2.844 0-5.555.406-8.195 1.625-8.059 3.59-16.797 7.992-24.383 12.664-5.148 3.183-9.348 7.25-10.434 13.82-.609 3.86-2.164 7.652-3.59 11.379-2.234 5.687-5.011 11.176-6.976 16.933-5.55 16.051-6.297 32.848-6.5 49.649-.07 6.637.336 13.273-.137 19.914-1.082 17.543-4.062 27.77-16.66 39.691-4.879 4.535-9.89 9.008-13.887 14.426-3.046 3.793-5.148 7.992-6.707 12.465-3.996 11.918-3.183 25.535 2.641 36.64.273-3.925.477-7.855.613-11.851.067-1.691.27-3.453.813-5.012 1.219-3.183 4.199-5.285 6.976-7.25 28.38-20.793 32.715-58.316 31.63-91.168-.743-21.133 2.238-41.656 9.956-61.5.543-1.425 1.422-2.777 2.575-4.812.882 1.629 1.355 2.238 1.624 2.98 4.946 18.559 8.536 37.457 9.622 56.625.812 13.547.132 27.028.132 40.64 0 12.06-3.52 23.099-9.683 33.259-2.371 3.863-2.645 7.586-1.356 11.855 1.082 3.52 1.895 7.18 2.235 10.902.406 5.829.406 11.653.406 17.543.066 12.805.34 25.606 0 38.34-.27 7.856-1.965 15.442-6.434 22.352-1.625 2.504-.949 4.062 1.356 4.062q.709.001 1.625-.203c.61-.133 1.082-.203 1.488-.203 1.695 0 2.442 1.086 2.371 3.117 0 2.235-.066 4.54-.879 6.637-2.574 6.91-.406 11.988 6.907 12.8 2.304.274 4.609.34 6.91.34 4.539 0 9.078-.34 13.613-.745 3.254-.27 3.996-2.504 2.441-5.622-.949-1.894-2.37-3.59-3.254-5.484-2.64-5.758-5.89-11.379-7.382-17.41-4.063-16.324-3.453-33.055-3.047-49.649.066-2.03 1.219-3.996 1.965-6.027 1.894-4.672 4.875-9.144 5.824-13.953 1.625-7.926 3.793-15.445 7.316-22.691 1.356-2.914 1.895-6.094 3.114-9.008.746-1.899 1.761-3.656 2.777-5.758 4.605 2.777 3.59 6.367 2.848 9.82-.407 2.305-1.63 4.676-1.426 6.977.746 11.515 2.238 23.031 2.644 34.547.473 12.324.27 24.722.067 37.117 0 2.3-.746 4.672-1.692 6.773-1.695 3.86.336 7.18 4.403 7.45 1.082.07 2.777.746 3.183 1.492.88 2.168 1.625 4.672 1.625 6.976 0 5.825 2.168 10.09 7.719 10.7 2.508.273 5.016.34 7.52.34 4.199 0 8.398-.27 12.597-.544 2.711-.132 3.66-2.097 1.63-4.468-1.63-1.762-3.255-3.524-4.946-5.215-6.23-6.3-11.922-12.8-12.125-22.422 0-.813-.34-1.625-.406-2.371-1.22-9.82-2.711-19.777-1.829-29.735.743-8.464 3.52-14.292 2.641-23.027-.61-6.031-1.016-11.988-1.422-18.02-.137-2.503-.883-4.874-1.015-7.449-.07-1.492 1.421-7.18.878-8.128.883 1.492 1.762 3.046 2.641 4.539 2.574 4.402 5.285 8.941 9.348 11.988 1.761 1.355 3.996 2.305 4.605 4.605.34 1.22.274 2.575.274 3.864 0 4.402.879 8.804 2.64 12.8.27.204.61.27.95.27.812 0 1.69-.543 2.167-1.285.61-1.016.61-2.305.54-3.59-.067-3.996-.133-7.926-.27-11.922 1.695.473 2.71 2.168 3.047 3.86.34 1.695 0 3.456-.133 5.148-.273 2.574-.273 5.215.133 7.789.34 0 .68.066 1.086.066 1.894 0 3.926-.406 4.672-2.03.34-.61.34-1.423.34-2.169v-7.383c0-1.625 0-3.25.949-4.672.539-.812 1.554-1.355 2.574-1.355.61 0 1.148.203 1.625.676.61.746.742 1.832.742 2.777 0 3.793.07 7.453.07 11.176.676.137 1.422.273 2.168.273 1.22 0 2.301-.34 2.778-1.355.27-.473.27-1.016.27-1.625v-11.856c.202-.066.406-.066.609-.066.609 0 1.152.137 1.695.473.066 3.93.133 7.793.27 11.652q.608.61 1.421.61c1.153 0 2.438-.813 2.844-1.966.746-1.69.34-3.59.274-5.418-.07-9.687 10.699-10.566 15.441-17.746 1.965-2.98 3.25-5.62 6.098-5.62.945 0 2.168.269 3.59 1.015 8.804 4.2 18.082 5.687 27.5 5.687 14.628 0 29.53-3.52 43.62-5.824 9.684-1.488 19.504-2.707 28.11-8.87 1.758-1.29 3.656-1.833 5.621-1.833 4.672 0 9.277 3.387 10.836 8.402 3.727 11.918 6.977 23.977 10.5 35.965 2.707 9.145 5.621 18.219 8.465 27.364 1.422 4.742 3.457 9.347 3.996 14.156.883 7.383 1.422 14.969.812 22.351-.742 8.063 0 16.528-4.808 23.98-1.828 2.911-.406 5.759 2.37 7.516.477.274 1.087.407 1.696.407.61 0 1.422-.133 1.965-.407.54-.335.61-2.03.61-3.113 0-.949-.34-2.031-.477-2.98 1.625.472 2.437 1.285 3.117 2.234 2.64 3.86.406 7.18-1.086 10.567-3.183 6.976 1.086 16.324 8.738 17.07 3.457.336 6.91.406 10.434.406 5.145 0 10.227-.273 15.305-.406 3.457-.137 4.27-2.235 2.644-5.285-1.355-2.504-3.05-4.809-5.082-7.993 2.305 0 4.2.067 6.028.067.882 0 1.761 0 2.644-.067 2.777-.066 5.621-.066 8.262-.746 3.726-.879 4.472-3.113 2.168-6.164-1.762-2.3-3.793-4.402-5.961-6.297-3.656-3.25-8.13-5.691-9.688-10.77-1.218-3.792-2.437-7.452-3.316-11.312-1.965-8.535-3.93-17.136-5.488-25.738-1.22-6.91-.946-13.41 1.898-20.254 2.234-5.215 2.777-11.308 3.25-17.066.746-8.672.543-17.274 1.016-25.942.07-1.355 1.355-3.253 2.574-3.793 5.351-2.238 9.82-5.554 12.531-10.636 3.32-6.297 6.367-12.867 9.485-19.305 5.418-11.176 7.312-19.508 20.859-21.2 2.101-.269 4.133-.339 6.164-.948 4.2-1.422 6.91-5.555 8.738-9.551 4.469-9.617 5.961-20.25 7.383-30.75.879-6.301.473-15.375 3.047-21.2 2.71-6.163 9.078-10.972 12.195-17.136.61-.95 2.301-1.965 3.52-1.965h.34c2.777.61 5.484.813 8.261.813 4.676 0 9.282-.61 13.887-1.153 7.383-.879 14.766-2.031 21.27-6.164.812-.543 2.097-.812 3.25-.812.746 0 1.421.136 1.964.34 3.184 1.421 6.297 2.03 9.414 2.03 3.25 0 6.504-.745 9.82-2.167 2.575-1.153 5.15-2.098 7.86-2.707 3.52-.746 5.555-2.035 6.434-4.27v-19.37c-.61-.88-1.625-1.696-2.98-2.509-1.829-1.015-3.794-1.894-5.485-3.183-9.348-7.11-15.512-17.067-22.762-26.008-1.015-1.29-1.691-3.387-1.758-5.012-.136-3.59.133-7.18.133-10.77 0-4.472-1.355-8.671-5.148-11.175-9.414-6.3-9.008-6.57-9.547-18.086-.07-1.29-.137-2.711-.883-3.793-1.219-1.762-3.523-2.168-5.621-2.168-5.691 0-10.16 3.387-14.02 3.387-2.238 0-4.27-1.153-6.164-4.672-1.421-2.102-5.285-3.727-8.062-3.727m0 0"/></clipPath><clipPath id="d"><path d="M0 .406h540V396H0Zm0 0"/></clipPath><clipPath id="e"><path d="M457.879.406c-.27 0-.473 0-.676.067-7.383.812-13.41 4.472-17.137 11.449-1.015 2.031-2.98 3.793-4.878 5.012-2.778 2.03-5.961 3.453-8.938 5.214-1.426.813-2.777 1.286-4.133 1.286s-2.64-.407-4.066-1.352c-4.672-3.184-9.48-6.367-14.492-9.144-4.2-2.305-8.536-3.66-12.938-3.66-2.914 0-5.824.609-8.805 1.898-3.32 1.422-4.199 4.062-3.457 7.52 1.829 8.327 5.961 15.374 11.72 21.468 2.843 2.98 6.23 4.879 10.296 4.879.676 0 1.422-.07 2.168-.203 1.625-.274 3.184-.477 4.672-.746 1.488-.27 3.047-.543 4.539-.88-7.25 5.145-14.7 7.247-22.285 7.247-6.637 0-13.41-1.625-20.051-4.133-5.078-1.894-10.293-2.98-15.375-2.98-1.082 0-2.168.07-3.316.136-14.903 1.356-29.602 3.793-44.434 5.758a5318 5318 0 0 0-33.055 4.403c-11.582 1.488-23.031 3.656-34.68 4.468-11.581.813-22.624.746-33.867 3.117-3.523.747-6.84.95-10.16.95-3.117 0-6.3-.203-9.55-.34h-1.153c-6.703 0-13.75 1.828-20.25 3.117-11.516 2.371-23.168 5.352-34.883 5.352-2.777 0-5.488-.137-8.265-.543-6.5-.883-13.817-3.454-20.727-3.454-2.844 0-5.555.407-8.195 1.626-8.059 3.59-16.797 7.992-24.383 12.664-5.148 3.183-9.348 7.25-10.434 13.82-.609 3.86-2.164 7.652-3.59 11.379-2.234 5.687-5.011 11.176-6.976 16.933-5.55 16.051-6.297 32.848-6.5 49.649-.07 6.637.336 13.273-.137 19.914-1.082 17.543-4.062 27.77-16.66 39.691-4.879 4.535-9.89 9.008-13.887 14.426-3.046 3.793-5.148 7.992-6.707 12.465-3.996 11.918-3.183 25.535 2.641 36.64.273-3.925.477-7.855.613-11.851.067-1.691.27-3.453.813-5.012 1.219-3.183 4.199-5.285 6.976-7.25 28.38-20.793 32.715-58.316 31.63-91.168-.743-21.133 2.238-41.656 9.956-61.5.543-1.425 1.422-2.777 2.575-4.812.882 1.629 1.355 2.238 1.624 2.98 4.946 18.559 8.536 37.457 9.622 56.625.812 13.547.132 27.028.132 40.64 0 12.06-3.52 23.099-9.683 33.259-2.371 3.863-2.645 7.586-1.356 11.855 1.082 3.52 1.895 7.18 2.235 10.902.406 5.829.406 11.653.406 17.543.066 12.805.34 25.606 0 38.34-.27 7.856-1.965 15.442-6.434 22.352-1.625 2.504-.949 4.062 1.356 4.062q.709.001 1.625-.203c.61-.133 1.082-.203 1.488-.203 1.695 0 2.442 1.086 2.371 3.117 0 2.235-.066 4.54-.879 6.637-2.574 6.91-.406 11.988 6.907 12.8 2.304.274 4.609.34 6.91.34 4.539 0 9.078-.34 13.613-.745 3.254-.27 3.996-2.504 2.441-5.622-.949-1.894-2.37-3.59-3.254-5.484-2.64-5.758-5.89-11.379-7.382-17.41-4.063-16.324-3.453-33.055-3.047-49.649.066-2.03 1.219-3.996 1.965-6.027 1.894-4.672 4.875-9.144 5.824-13.953 1.625-7.926 3.793-15.445 7.316-22.691 1.356-2.914 1.895-6.094 3.114-9.008.746-1.899 1.761-3.656 2.777-5.758 4.605 2.777 3.59 6.367 2.848 9.82-.407 2.305-1.63 4.676-1.426 6.977.746 11.516 2.238 23.031 2.644 34.547.473 12.324.27 24.722.067 37.117 0 2.3-.746 4.672-1.692 6.773-1.695 3.86.336 7.18 4.403 7.45 1.082.07 2.777.746 3.183 1.492.88 2.168 1.625 4.672 1.625 6.976 0 5.825 2.168 10.09 7.719 10.7 2.508.273 5.016.34 7.52.34 4.199 0 8.398-.27 12.597-.544 2.711-.132 3.66-2.097 1.63-4.468-1.63-1.762-3.255-3.524-4.946-5.215-6.23-6.3-11.922-12.8-12.125-22.422 0-.813-.34-1.625-.406-2.371-1.22-9.82-2.711-19.777-1.829-29.735.743-8.464 3.52-14.292 2.641-23.027-.61-6.031-1.016-11.988-1.422-18.02-.137-2.503-.883-4.874-1.015-7.449-.07-1.492 1.421-7.18.878-8.129.883 1.493 1.762 3.047 2.641 4.54 2.574 4.402 5.285 8.941 9.348 11.988 1.761 1.355 3.996 2.305 4.605 4.605.34 1.22.274 2.575.274 3.864 0 4.402.879 8.804 2.64 12.8.27.204.61.27.95.27.812 0 1.69-.543 2.167-1.285.61-1.016.61-2.305.54-3.59-.067-3.996-.133-7.926-.27-11.922 1.695.473 2.71 2.168 3.047 3.86.34 1.695 0 3.456-.133 5.148-.273 2.574-.273 5.215.133 7.789.34 0 .68.066 1.086.066 1.894 0 3.926-.406 4.672-2.03.34-.61.34-1.423.34-2.169v-7.383c0-1.625 0-3.25.949-4.672.539-.812 1.554-1.355 2.574-1.355.61 0 1.148.203 1.625.676.61.746.742 1.832.742 2.777 0 3.793.07 7.453.07 11.176.676.137 1.422.273 2.168.273 1.22 0 2.301-.34 2.778-1.355.27-.473.27-1.016.27-1.625v-11.856c.202-.066.406-.066.609-.066.609 0 1.152.137 1.695.473.066 3.93.133 7.793.27 11.652q.608.61 1.421.61c1.153 0 2.438-.813 2.844-1.966.746-1.69.34-3.59.274-5.418-.07-9.687 10.699-10.566 15.441-17.746 1.965-2.98 3.25-5.62 6.098-5.62.945 0 2.168.269 3.59 1.015 8.804 4.2 18.082 5.687 27.5 5.687 14.628 0 29.53-3.52 43.62-5.824 9.684-1.488 19.504-2.707 28.11-8.87 1.758-1.29 3.656-1.833 5.621-1.833 4.672 0 9.277 3.387 10.836 8.402 3.727 11.918 6.977 23.977 10.5 35.965 2.707 9.145 5.621 18.219 8.465 27.364 1.422 4.742 3.457 9.347 3.996 14.156.883 7.383 1.422 14.969.812 22.351-.742 8.063 0 16.528-4.808 23.98-1.828 2.911-.406 5.759 2.37 7.516.477.274 1.087.407 1.696.407.61 0 1.422-.133 1.965-.407.54-.335.61-2.03.61-3.113 0-.949-.34-2.031-.477-2.98 1.625.472 2.437 1.285 3.117 2.234 2.64 3.86.406 7.18-1.086 10.567-3.183 6.976 1.086 16.324 8.738 17.07 3.457.336 6.91.406 10.434.406 5.145 0 10.227-.273 15.305-.406 3.457-.137 4.27-2.235 2.644-5.285-1.355-2.504-3.05-4.809-5.082-7.993 2.305 0 4.2.067 6.028.067.882 0 1.761 0 2.644-.067 2.777-.066 5.621-.066 8.262-.746 3.726-.879 4.472-3.113 2.168-6.164-1.762-2.3-3.793-4.402-5.961-6.297-3.656-3.25-8.13-5.691-9.688-10.77-1.218-3.792-2.437-7.452-3.316-11.312-1.965-8.535-3.93-17.136-5.488-25.738-1.22-6.91-.946-13.41 1.898-20.254 2.234-5.215 2.777-11.308 3.25-17.066.746-8.672.543-17.274 1.016-25.942.07-1.355 1.355-3.253 2.574-3.793 5.351-2.238 9.82-5.554 12.531-10.636 3.32-6.297 6.367-12.867 9.485-19.305 5.418-11.176 7.312-19.508 20.859-21.2 2.101-.269 4.133-.339 6.164-.948 4.2-1.422 6.91-5.555 8.738-9.551 4.469-9.617 5.961-20.25 7.383-30.75.879-6.301.473-15.375 3.047-21.2 2.71-6.163 9.078-10.972 12.195-17.136.61-.95 2.301-1.965 3.52-1.965h.34c2.777.61 5.484.813 8.261.813 4.676 0 9.282-.61 13.887-1.153 7.383-.879 14.766-2.031 21.27-6.164.812-.543 2.097-.812 3.25-.812.746 0 1.421.136 1.964.34 3.184 1.421 6.297 2.03 9.414 2.03 3.25 0 6.504-.745 9.82-2.167 2.575-1.153 5.15-2.098 7.86-2.707 3.52-.746 5.555-2.035 6.434-4.27v-19.37c-.61-.88-1.625-1.696-2.98-2.509-1.829-1.015-3.794-1.894-5.485-3.183-9.348-7.11-15.512-17.067-22.762-26.008-1.015-1.29-1.691-3.387-1.758-5.012-.136-3.59.133-7.18.133-10.77 0-4.472-1.355-8.671-5.148-11.175-9.414-6.3-9.008-6.57-9.547-18.086-.07-1.29-.137-2.711-.883-3.793-1.219-1.762-3.523-2.168-5.621-2.168-5.691 0-10.16 3.387-14.02 3.387-2.238 0-4.27-1.153-6.164-4.672C464.52 2.03 460.656.406 457.88.406m0 0"/></clipPath><clipPath id="c"><path d="M0 0h541v396H0z"/></clipPath></defs><g clip-path="url(#a)"><g clip-path="url(#b)"><g clip-path="url(#c)" transform="translate(30 144)"><g clip-path="url(#d)"><g clip-path="url(#e)"><path d="M0 .406h539.305v395.59H0Zm0 0"/></g></g></g></g></g></svg>