<svg xmlns="http://www.w3.org/2000/svg" width="800" height="800" viewBox="0 0 600 600"><defs><clipPath id="a"><path d="M76.738 117.285h446.793V483H76.738Zm0 0"/></clipPath><clipPath id="b"><path d="M482.223 297.875s-1.457 20.652-15.684 29.953c0 0-12.809-6.297-30.746 2.711-17.938 9.012-58.902 37.672-86.27 17.274-21.527-16.145-22.652-42.72-22.195-53.274-1.25 11.555-6.84 42.508-31.41 59.238-23.32 13.684-72.586 4.254-72.586 4.254s49.684-.207 74.922-43.426c25.113-43.05 28.7-88.273 24.781-131.242 0 0 15.684 2.922 20.649 19.067-5.258 20.648-6.051 35.207-3.254 70.793 2.918 35.543 8.3 51.351 25.113 56.402 27.7 6.84 68.625-20.066 68.625-20.066s-50.688-31.747-75.258 4.253c0 0-6.633-26.906 25.363-41.507 26.575-9.094 52.063 24.906 76.176 27.242 15.684.539 21.774-1.672 21.774-1.672M270.68 264.461c28.03 8.969 30.746 37.336 30.746 37.336 2.918-16.145 3.379-37.125-13.809-56.524-17.187-19.398-44.512-26.242-44.512-26.242s-3.253 5.508-5.05 17.399c-1.793 11.886-.457 22.652-.457 22.652s5.047-3.59 33.082 5.379m-38.59 2.004c-4.254-35.211 5.383-56.402 5.383-56.402-10.098-11.762-16.145-33.083-16.145-33.083s-10.094 4.258-11.098 22.653c-1.125 18.273 8.637 34.875 12.56 65.746 3.92 30.871-1.794 55.652-14.02 69.668-12.223 14.015-42.047 12.89-52.813-2.922-10.762-15.809-5.715-45.305-5.715-45.305s-9.3 13.352-12.554 33.418c-3.254 20.063 3.585 40.922 22.652 47.098 19.062 6.047 51.351.668 66.828-21.86 15.27-22.527 9.18-43.761 4.922-78.972Zm218.387 158.023c40.59-33.207 62.91-77.386 62.91-124.484s-22.32-91.317-62.91-124.524c-40.254-32.832-93.653-51.02-150.43-51.02s-110.258 18.188-150.512 51.02c-40.594 33.208-62.91 77.426-62.91 124.524s22.316 91.277 62.91 124.484c40.254 32.871 93.653 51.059 150.512 51.059 56.734-.125 110.133-18.188 150.43-51.02Zm51.355-124.484c0 90.398-90.527 163.863-201.91 163.863S98.055 390.277 98.055 300.004c0-90.274 90.527-163.863 201.91-163.863S501.87 209.605 501.87 300.004Zm21.441 0c0-100.746-100.16-182.719-223.226-182.719-123.063 0-223.309 81.973-223.309 182.719s100.16 182.719 223.309 182.719c123.148 0 223.226-81.973 223.226-182.72m-2.253 0c0 99.496-99.16 180.34-220.973 180.34S79.074 399.5 79.074 300.004c0-99.492 99.16-180.383 220.973-180.383 121.812 0 220.973 80.89 220.973 180.383M218.867 406.09h-11.472v-12.098h-6.508v28.95h6.508v-11.344h11.43v11.343h6.507v-28.949h-6.465Zm57.653 16.812-12.473-28.91h-6.258l-12.434 28.95h6.844l2.711-6.297h12.098l2.71 6.296h6.844Zm-12.016-11.89h-7.3l3.589-8.426Zm50.601 11.89v-5.675h-12.347v-23.11h-6.508v28.953h18.855Zm48.81 0-12.43-28.953h-6.34l-12.434 28.953h6.844l2.71-6.3h12.098l2.711 6.3Zm-12.013-11.89h-7.3l3.586-8.426Zm50.602 11.89v-5.675h-12.39v-23.11h-6.509v28.953h18.856v-.129Zm0 0"/></clipPath><clipPath id="d"><path d="M.738.285h446.703V365.88H.738Zm0 0"/></clipPath><clipPath id="e"><path d="M406.223 180.875s-1.457 20.652-15.684 29.953c0 0-12.809-6.297-30.746 2.711-17.938 9.012-58.902 37.672-86.27 17.274-21.527-16.145-22.652-42.72-22.195-53.274-1.25 11.555-6.84 42.508-31.41 59.238-23.32 13.684-72.586 4.254-72.586 4.254s49.684-.207 74.922-43.426c25.113-43.05 28.7-88.273 24.781-131.242 0 0 15.684 2.922 20.649 19.067-5.258 20.648-6.051 35.207-3.254 70.793 2.918 35.543 8.3 51.351 25.113 56.402 27.7 6.84 68.625-20.066 68.625-20.066s-50.688-31.746-75.258 4.254c0 0-6.633-26.907 25.363-41.508 26.575-9.094 52.063 24.906 76.176 27.242 15.684.539 21.774-1.672 21.774-1.672M194.68 147.461c28.03 8.969 30.746 37.336 30.746 37.336 2.918-16.145 3.379-37.125-13.809-56.524-17.187-19.398-44.512-26.242-44.512-26.242s-3.253 5.508-5.05 17.399c-1.793 11.886-.457 22.652-.457 22.652s5.047-3.59 33.082 5.379m-38.59 2.004c-4.254-35.211 5.383-56.402 5.383-56.402C151.375 81.3 145.328 59.98 145.328 59.98s-10.094 4.258-11.098 22.653c-1.125 18.273 8.637 34.875 12.56 65.746 3.92 30.871-1.794 55.652-14.02 69.668-12.223 14.016-42.047 12.89-52.813-2.922-10.762-15.809-5.715-45.305-5.715-45.305s-9.3 13.352-12.555 33.418c-3.253 20.063 3.586 40.922 22.653 47.098 19.062 6.047 51.351.668 66.828-21.86 15.27-22.527 9.18-43.761 4.922-78.972Zm218.387 158.023c40.59-33.207 62.91-77.386 62.91-124.484s-22.32-91.316-62.91-124.524c-40.254-32.832-93.653-51.02-150.43-51.02S113.789 25.649 73.535 58.48c-40.594 33.208-62.91 77.426-62.91 124.524s22.316 91.277 62.91 124.484c40.254 32.871 93.653 51.059 150.512 51.059 56.734-.125 110.133-18.188 150.43-51.02Zm51.355-124.484c0 90.398-90.527 163.863-201.91 163.863S22.055 273.277 22.055 183.004c0-90.274 90.527-163.863 201.91-163.863S425.87 92.605 425.87 183.004Zm21.441 0C447.273 82.258 347.113.285 224.047.285 100.984.285.738 82.258.738 183.004s100.16 182.719 223.309 182.719c123.148 0 223.226-81.973 223.226-182.72m-2.253 0c0 99.496-99.16 180.34-220.973 180.34S3.074 282.5 3.074 183.004c0-99.492 99.16-180.383 220.973-180.383 121.812 0 220.973 80.89 220.973 180.383M142.867 289.09h-11.472v-12.098h-6.508v28.95h6.508v-11.344h11.43v11.343h6.507v-28.949h-6.465Zm57.653 16.812-12.473-28.91h-6.258l-12.434 28.95h6.844l2.711-6.297h12.098l2.71 6.296h6.845Zm-12.016-11.89h-7.3l3.589-8.426Zm50.601 11.89v-5.675h-12.347v-23.11h-6.508v28.953h18.855Zm48.81 0-12.43-28.953h-6.34l-12.434 28.953h6.844l2.71-6.3h12.098l2.711 6.3Zm-12.013-11.89h-7.3l3.586-8.426Zm50.602 11.89v-5.675h-12.39v-23.11h-6.509v28.953h18.856v-.129Zm0 0"/></clipPath><clipPath id="c"><path d="M0 0h448v366H0z"/></clipPath></defs><g clip-path="url(#a)"><g clip-path="url(#b)"><g clip-path="url(#c)" transform="translate(76 117)"><g clip-path="url(#d)"><g clip-path="url(#e)"><path fill="#ffd11e" d="M.738.285h446.793v365.43H.738Zm0 0"/></g></g></g></g></g></svg>