<svg xmlns="http://www.w3.org/2000/svg" width="800" height="800" viewBox="0 0 600 600"><path fill="#f5b915" fill-rule="evenodd" d="M251.887 149.223c-.477.195-11.211 4.843-23.856 10.336a12927 12927 0 0 1-35.136 15.191c-6.68 2.863-14.88 6.422-18.22 7.906-3.34 1.48-14.175 6.168-24.073 10.41-43.829 18.79-52.258 22.543-53.317 23.743l-1.047 1.187.266 41.172c.219 34.176.16 41.414-.328 42.586-.512 1.23-3.235 2.988-21.125 13.652a13076 13076 0 0 1-25.305 15.063c-2.625 1.547-5.488 3.293-6.367 3.879-3.113 2.082-2.992.75-2.941 32.254.039 25.093-.036 28.332-.637 29-.586.648-.684 2.52-.684 13.382 0 12.485.012 12.641.977 13.72.804.89 3.547 1.816 15.472 5.222 8.317 2.37 15.082 4.539 15.871 5.078.758.52 1.848 1.64 2.422 2.492 1.922 2.852 7.41 8.258 10.098 9.95 5.645 3.55 11.715 5.156 17.816 4.706 4.145-.304 7.137-1.14 11.43-3.195l3.164-1.512 18.309 5.29c10.07 2.91 24.262 7.038 31.539 9.18 8.492 2.491 14.008 3.894 15.398 3.913 3 .035 27.051-3.5 28.32-4.164.567-.297 1.454-1.293 1.97-2.21 1.015-1.798 1.706-2.114 7.331-3.356 3.52-.778 3.97-.563 5.88 2.8 2 3.524 4.644 6.598 7.597 8.832 4.422 3.344 6.226 4.024 21.344 8.024 12.039 3.183 20.09 2.86 28.074-1.137 11.324-5.66 19.855-17.191 23.418-31.652.703-2.863 1.512-5.442 1.793-5.735s9.098-2.398 19.594-4.683q15.508-3.37 31.011-6.758a50617 50617 0 0 0 49.614-10.86c5.457-1.199 10.355-2.07 10.886-1.937.57.145 1.61 1.29 2.547 2.809 1.969 3.183 5.61 6.562 8.719 8.086 3.184 1.558 16.594 4.992 20.629 5.285 5.89.43 11.023-1.508 15.77-5.945 5.007-4.688 9.054-12.442 9.648-18.493.16-1.636.48-3.34.707-3.777.633-1.23 3.652-2.352 7.7-2.86 2.628-.331 3.917-.702 4.522-1.312.84-.836.856-2.082 1.008-81.226.153-78.586.176-80.391.989-81.079.457-.39 3.523-1.332 6.812-2.093a522 522 0 0 0 12.41-3.09c3.531-.938 6.778-1.703 7.207-1.703 1.25 0 2.88 1.55 4.332 4.129 1.942 3.433 4.106 5.652 6.817 6.98 3.972 1.942 7.738 1.117 11.773-2.578 2.524-2.309 5.516-6.875 7.66-11.691.93-2.082 1.762-3.711 1.848-3.621.09.085.734 2.296 1.437 4.91 2.84 10.609 7.614 19.097 11.872 21.12 1.902.903 4.714.903 6.617 0 4.07-1.933 9.293-10.882 12.11-20.769 1.124-3.937 1.687-6.707 2.39-11.762.57-4.078.039-5.777-2.063-6.578-.668-.254-9.316-3.035-19.215-6.183-9.902-3.145-29.52-9.418-43.597-13.946-14.074-4.523-31.059-9.98-37.739-12.125s-21.816-7.011-33.636-10.812c-13.035-4.191-22.168-6.91-23.207-6.906-.946.004-2.887.375-4.32.828-1.43.453-9.825 3.097-18.653 5.879-8.824 2.777-19.277 6.113-23.226 7.414-3.95 1.297-7.684 2.355-8.305 2.355-.617 0-3.57-.582-6.559-1.297-2.988-.714-11.16-2.46-18.156-3.882a9356 9356 0 0 1-29.64-6.094 12601 12601 0 0 0-48.712-10.004c-10.32-2.102-13.308-2.445-15.054-1.738m-31.23 25.226c-18.372 6.906-38.087 14.235-43.813 16.285-5.727 2.051-13.242 4.856-16.7 6.235-3.46 1.379-18.101 6.937-32.535 12.351-14.433 5.418-26.386 10.075-26.562 10.348-.352.559-.461 11.133-.113 11.133.117 0 5.437-1.781 11.82-3.953 6.379-2.176 25.363-8.602 42.183-14.282 16.82-5.683 38.098-12.957 47.282-16.164 48.62-16.988 49.504-17.246 51.836-15.054 2.066 1.941 2.097 2.523 1.586 28.261a18477 18477 0 0 0-.953 52.641c-.258 15.746-.567 29.453-.684 30.46-.274 2.345-.438 2.493-13.68 12.337-40.05 29.785-54.3 40.527-54.797 41.32-.597.945-1.285 11.055-1.75 25.63-.136 4.292-.64 15.804-1.12 25.577s-.759 18.215-.622 18.758c.3 1.211.633 1.219 10.86.34 10.855-.938 14.562-.875 16.023.277.644.508 1.355 1.403 1.578 1.988.223.586.688 6.668 1.031 13.516.344 6.852.754 12.79.91 13.195.157.407.508.743.782.747 1.511.015 16.636-3.235 17.113-3.68.465-.434.438-1.406-.16-5.477-.543-3.687-.672-6.66-.508-11.672.281-8.527 1.738-14.62 5.238-21.894 2.953-6.145 5.243-9.555 9.145-13.613 5.414-5.633 10.652-8.77 17.582-10.52 5.414-1.371 12.656-1.05 17.918.79 6.906 2.41 12.508 6.566 17.215 12.765 6.61 8.71 9.254 16.273 10.746 30.734.262 2.535.496 3.281 1.07 3.387.977.187 118.852-23.328 119.48-23.832.317-.254.567-2.942.692-7.434.184-6.418.32-7.398 1.559-11.156 6.886-20.898 26.644-26.86 39.175-11.828 3.536 4.242 6.86 12.941 6.875 17.992.012 2.844.727 3.16 5.02 2.219 1.828-.403 3.594-1.004 3.926-1.336.515-.512.605-12.461.605-78.406 0-48.918-.156-78.215-.418-78.907-.234-.613-.855-1.187-1.41-1.297-.543-.109-16.312-2.957-35.043-6.332a52342 52342 0 0 1-48.367-8.738q-28.407-5.167-56.824-10.351c-19.368-3.54-24.2-4.368-24.625-4.227-.442.148 9.539 2.367 22.89 5.094 4.774.976 11.41 2.344 14.75 3.043s15.637 3.238 27.328 5.64c19.559 4.024 39.114 8.063 58.668 12.125a6750 6750 0 0 0 21.493 4.414c4.964 1.004 9.289 2.036 9.617 2.293.496.387.633 8.262.812 46.825.153 32.539.078 46.668-.25 47.382-.293.649-.96 1.11-1.808 1.258-.739.13-23.207 1.887-49.926 3.903-26.723 2.02-51.024 3.87-54.008 4.113-2.98.246-19.281 1.512-36.219 2.816-16.937 1.305-32.492 2.586-34.558 2.852-2.766.351-4.004.348-4.668-.008l-.906-.484.113-73.496c.11-72.844.12-73.504.98-74.36.504-.5 3.781-1.754 7.809-2.988 18.851-5.777 53.082-16.738 52.894-16.938-.242-.254-3.168-.75-16.964-2.879-7.118-1.097-23.48-3.648-36.364-5.667-20.441-3.204-23.484-3.59-23.898-3.024-.293.399-.582 4.89-.762 11.828-.156 6.149-.394 13.817-.523 17.04-.36 8.831-2.696 78.472-3.297 98.359-.293 9.601-.688 17.457-.883 17.457s-.356-1.512-.36-3.36c-.007-3.648-.5-19.027-1.523-47.61-.12-3.339-.406-12.218-.64-19.733-.23-7.516-.524-16.497-.649-19.957-.125-3.458-.32-8.922-.433-12.145-.118-3.219-.415-13.273-.665-22.34-.246-9.066-.492-17.648-.543-19.07l-.093-2.586-3.688-.754c-7.398-1.516-5.09-2.16-42.293 11.824m207.25-8.39c.961 11.453 6.739 28.64 12.2 36.289 6.94 9.73 13.054 9.507 20.113-.735 3.918-5.683 6.258-11.23 7.863-18.64 1.121-5.18 1.152-6.676.152-7.188-1.308-.676-39-12.656-39.808-12.656-.684 0-.738.324-.52 2.93m48.031 14.312c0 2.668 1.004 8.727 2.348 14.207 2.844 11.598 6.586 19.965 10.899 24.363 2.515 2.563 2.828 2.75 4.636 2.75 2.528 0 4.66-1.53 7.64-5.484 4.009-5.316 6.978-12.309 8.99-21.16 1.175-5.176.917-5.996-2.09-6.75-2.715-.684-9.188-2.684-21.18-6.547-5.86-1.89-10.79-3.437-10.953-3.437-.16 0-.293.925-.29 2.058m41.657 11.379c-.637.39 1.203 12.629 2.855 19.027 2.168 8.38 6.418 17.61 9.317 20.227 2.57 2.324 3.882 2.137 6.875-.969 4.644-4.82 8.632-13.918 10.359-23.62.762-4.278.77-4.696.125-5.27-.387-.344-3.043-1.32-5.906-2.176-2.864-.856-9.235-2.903-14.157-4.547-4.917-1.649-9.18-2.852-9.468-2.672m-282.625 4.102c-1.906.546-15.766 4.457-30.797 8.683-36.961 10.399-38.867 10.953-39.293 11.375-.203.203-.5 16.617-.664 36.477-.25 30.77-.207 36.101.312 36.082.332-.012 5.11-5.723 10.621-12.688 5.508-6.965 21.614-27.304 35.79-45.199 29.402-37.11 28.378-35.797 27.878-35.754-.207.016-1.937.477-3.847 1.024m319.52 8.222c-.973 1.172 1.609 16.446 4.116 24.34 2.293 7.223 6.13 13.668 8.13 13.664 2.874-.012 7.808-7.68 10.605-16.484 1.847-5.813 3.02-12.758 2.297-13.63-.305-.362-5.707-2.331-12.008-4.374s-11.715-3.817-12.031-3.938c-.317-.12-.817.067-1.11.422m-419.937 20.184a9433 9433 0 0 1-27.024 7.613c-3.73 1.035-6.12 1.922-6.351 2.356-.41.773-.824 60.984-.422 61.39.14.14.555-.09.918-.508.687-.789 52.07-73.136 53.465-75.277.433-.664.71-1.277.617-1.367-.09-.09-9.633 2.515-21.203 5.793m21.562 10.879c-.41 2.73-.886 7.676-3.758 38.968-1.39 15.114-2.695 27.637-2.898 27.832-.445.426-3.621.711-14.691 1.333-29.551 1.656-34.77 2.03-35.79 2.562-2.187 1.145-49.683 29.656-50.226 30.152-.7.637 37.156 1.09 90.918 1.09 31.832 0 36.289-.078 37.437-.672 2.098-1.086 59.165-38.406 59.165-38.691 0-.281-4.075-.227-9.325.129-1.789.12-8.523.508-14.965.863-19.195 1.059-25.39 1.422-48.046 2.824-6.414.399-8.282.395-8.786-.027-.863-.719-.851-1.86.457-37.184.606-16.367 1.036-30.066.954-30.445-.086-.375-.286.191-.446 1.266m283.602 6.265c-19.727 3.313-39.813 6.575-43.3 7.036-1.15.148-2.517.617-3.036 1.039l-.95.765v25.348c0 20.848.11 25.476.598 26.066.543.656 3.422.719 33.54.719 22.285 0 33.218-.148 33.796-.46.809-.435.844-.81.625-7.048-.125-3.625-.328-12.84-.449-20.472-.512-31.98-.742-36.375-1.902-36.172-.149.023-8.664 1.457-18.922 3.18M44.773 340.948c-.296.555-.449 9.883-.449 27.278 0 22.359.094 26.515.617 26.949.746.617 8.746 1.984 71.172 12.152 26.485 4.313 50.04 8.16 52.344 8.547s4.5.586 4.879.438c.617-.235.687-2.653.68-23.157-.004-12.695-.2-24.152-.434-25.715-.234-1.55-.555-5.605-.71-9.003-.192-4.176-.466-6.336-.837-6.645-.633-.527-.293-.492-35.75-3.648-14.672-1.305-40.96-3.649-58.414-5.204-17.457-1.554-31.945-2.828-32.195-2.828s-.656.375-.903.836m155.125 9.578c-3.05.391-4.18 1.34-4.265 3.594-.098 2.567.933 3.344 4.453 3.344 5.035 0 9.625-.793 10.484-1.805 1.016-1.2.957-3.031-.14-4.43-.848-1.078-1.098-1.136-4.446-1.085-1.953.03-4.691.203-6.086.382M54.301 354.72c-4.39 1.785-6.965 8.715-6.973 18.777-.008 9.305 2.238 16.047 6.05 18.172 3.454 1.922 6.438.203 8.84-5.102 4.028-8.87 3.872-18.421-.429-26.898-.898-1.77-2.125-3.582-2.727-4.023-1.175-.868-3.699-1.356-4.761-.926m92.527 4.465c-3.398 1.718-6.555 5.128-8.574 9.25-2.555 5.234-3.055 7.824-3.055 15.921 0 6.293.125 7.555 1.016 10.415 2.289 7.324 6.055 12.437 10.812 14.664 3.52 1.648 7.946 1.64 11.516-.02 5.41-2.52 10.309-9.82 11.84-17.652.867-4.43.62-13.153-.48-17.164-1.805-6.57-6.11-12.68-10.684-15.172-1.938-1.055-2.95-1.297-6.016-1.434-3.437-.156-3.871-.074-6.375 1.192M53.25 361.05c-1.73 2.953-2.555 6.898-2.566 12.246-.012 5.562.57 8.617 2.265 11.93.95 1.843 1.48 2.414 2.348 2.52 1.445.171 2.168-1.173 3.394-6.306 1.551-6.484.72-16.691-1.73-21.27-.879-1.64-2.453-1.265-3.711.88m18.402-.211c0 .363 52.801 10.086 54.735 10.074 1.738-.008 2.386-.965 2.96-4.36.465-2.765.442-3.156-.242-3.913-.683-.754-1.382-.84-6.875-.848-3.363-.004-15.68-.293-27.37-.64-25.446-.758-23.208-.727-23.208-.313m77.16 6.789c-3.675 2.496-6.058 8.215-6.343 15.21-.297 7.224 1.386 13.052 4.8 16.63 4.141 4.34 7.938 3.25 11.075-3.18 3.14-6.45 3.73-13.582 1.644-19.957-2.824-8.613-6.777-11.691-11.175-8.703m259.234 13.512c-6.203.57-30.168 2.668-53.258 4.668s-42.086 3.742-42.215 3.867c-.43.433 2.836 6.328 3.649 6.586.445.14 2.941-.035 5.543-.395 2.601-.355 23.859-3.094 47.242-6.086 46.086-5.894 54.504-7.047 54.945-7.508.16-.164.356-.691.434-1.168.129-.78-.114-.875-2.457-.933-1.434-.035-7.68.398-13.883.969m-333.574.832c2.351 1.16 48.851 13.742 49.859 13.492 1.125-.285 1.668-1.336 2.422-4.707.703-3.13.332-3.63-2.961-3.985l-16.137-1.761a6530 6530 0 0 0-22.125-2.371 3247 3247 0 0 1-10.41-1.094l-1.95-.215Zm377.82 1.332c-2.094 1.09-3.2 2.36-4.684 5.367-1.32 2.683-1.39 3.074-1.39 7.82 0 5.621.765 8.063 3.367 10.75 2.543 2.633 5.613 2.746 8.45.32 3.632-3.113 5.382-8.855 4.5-14.785-1.13-7.601-5.708-11.832-10.243-9.472M43.102 400.504c-.188.543-.235 5.055-.102 10.023.215 8.055.324 9.102 1.023 9.61.434.316 2.973 1.101 5.641 1.746 2.668.644 9.93 2.406 16.133 3.914s13.719 3.332 16.7 4.05c9.905 2.4 19.812 4.801 29.714 7.212 3.34.812 11.344 2.765 17.785 4.343l29.348 7.176c9.699 2.375 18.05 4.317 18.554 4.317 1.2 0 1.567-.977 2.446-6.508.394-2.504.824-4.727.949-4.934.437-.734.937.922 1.824 6.035.492 2.836 1.086 5.348 1.32 5.582.586.586 15.598-2.14 16.442-2.988.555-.55.574-2 .156-10.863-.312-6.668-.664-10.446-1.004-10.856-.691-.832-3.515-.804-9.617.09-2.691.399-7.238.735-10.101.746-4.575.024-5.81-.14-10.192-1.36-2.746-.76-18.36-4.331-34.703-7.929-45.922-10.113-57.988-12.781-74.61-16.504l-16.382-3.668c-.742-.164-1.067.024-1.324.766m226.683 6.445c-4.816 1.133-9.336 6.535-11.422 13.653-.96 3.277-.968 10.543-.015 14.62 1.285 5.489 4.68 10.442 8.289 12.09 7.187 3.282 15.722-3.68 17.785-14.519.808-4.238.816-8.75.023-12.496-1.86-8.777-8.476-14.8-14.66-13.348m159.152 1.992c-.878.88.758 4.809 3.543 8.493 2.106 2.785 2.508 2.601.739-.336-.793-1.317-1.793-3.57-2.227-5.008-.773-2.586-1.5-3.703-2.055-3.149m-194.46 42.864c-.34.886 2.05 5.851 4.41 9.156 2.039 2.855 6.328 6.96 8.898 8.516 1.328.804 1.254.664-.668-1.223-4.508-4.434-7.351-8.809-9.344-14.383-.82-2.305-1.125-2.71-2.007-2.71-.57 0-1.153.288-1.29.644"/></svg>